<?xml version="1.0" standalone="no"?>
<!DOCTYPE svg PUBLIC "-//W3C//DTD SVG 20010904//EN"
 "http://www.w3.org/TR/2001/REC-SVG-20010904/DTD/svg10.dtd">
<svg version="1.0" xmlns="http://www.w3.org/2000/svg"
 width="300.000000pt" height="300.000000pt" viewBox="0 0 300.000000 300.000000"
 preserveAspectRatio="xMidYMid meet">
<metadata>
Created by potrace 1.10, written by Peter Selinger 2001-2011
</metadata>
<g transform="translate(0.000000,300.000000) scale(0.100000,-0.100000)"
fill="#000000" stroke="none">
<path d="M717 2509 c-97 -23 -190 -101 -235 -197 l-27 -57 0 -755 0 -755 28
-57 c36 -73 119 -150 192 -177 55 -21 71 -21 825 -21 751 0 771 0 824 21 77
28 148 96 188 177 l33 67 3 736 c2 718 2 739 -18 791 -27 74 -70 129 -132 171
-99 68 -89 67 -908 66 -404 -1 -752 -5 -773 -10z m1543 -32 c93 -19 178 -86
227 -179 l28 -53 3 -717 c2 -708 2 -718 -19 -780 -28 -84 -95 -163 -169 -197
l-55 -26 -758 -3 c-817 -3 -798 -4 -884 49 -45 28 -102 94 -127 148 -21 46
-21 51 -21 786 l0 740 30 55 c57 104 143 167 245 179 60 8 1462 5 1500 -2z"/>
<path d="M1650 2218 c-87 -23 -174 -120 -185 -207 -11 -75 -34 -136 -63 -163
-59 -56 -99 -60 -207 -23 -165 56 -321 -16 -370 -171 -31 -99 -9 -191 64 -267
71 -75 158 -100 272 -78 79 16 132 3 189 -46 52 -45 67 -74 80 -159 18 -117
71 -194 170 -244 58 -29 169 -30 231 -2 73 33 136 103 159 177 15 46 14 135
-1 185 -29 89 -130 173 -224 185 -48 6 -74 2 -180 -28 -91 -25 -171 16 -200
102 -20 63 -12 112 28 168 53 75 121 91 250 59 56 -14 77 -15 122 -6 133 28
223 145 213 279 -12 173 -177 286 -348 239z m186 -46 c84 -43 128 -117 128
-212 0 -168 -152 -270 -318 -214 -155 53 -306 -51 -306 -211 0 -74 27 -127 86
-168 58 -41 117 -46 194 -17 174 65 338 -34 348 -210 7 -110 -47 -202 -143
-246 -98 -46 -201 -28 -282 51 -53 52 -83 119 -83 189 -1 75 -75 171 -156 202
-36 13 -58 15 -112 9 -116 -15 -165 -11 -218 17 -176 91 -170 346 11 429 54
25 150 25 207 0 96 -41 160 -35 224 21 46 41 64 77 75 155 17 119 73 190 179
224 38 13 123 3 166 -19z"/>
</g>
</svg>
